<mxfile host="app.diagrams.net" modified="2024-04-11T19:46:08.531Z" agent="Mozilla/5.0 (Windows NT 10.0; Win64; x64) AppleWebKit/537.36 (KHTML, like Gecko) Chrome/123.0.0.0 Safari/537.36" version="22.1.17" etag="9xKdh5RfD0s84F7qm1n7" type="github">
  <diagram name="Page-1" id="AMZI1BX3IWz7YUD5xCKA">
    <mxGraphModel>
      <root>
        <mxCell id="0" />
        <mxCell id="1" parent="0" />
      </root>
    </mxGraphModel>
  </diagram>
</mxfile>
